<?xml version="1.0" encoding="UTF-8"?>
<!DOCTYPE svg PUBLIC "-//W3C//DTD SVG 1.1//EN" "http://www.w3.org/Graphics/SVG/1.1/DTD/svg11.dtd">
<svg version="1.1" xmlns="http://www.w3.org/2000/svg" xmlns:xlink="http://www.w3.org/1999/xlink" x="0" y="0" width="5000" height="5000" viewBox="0, 0, 5000, 5000">
  <defs>
    <linearGradient id="Gradient_1" gradientUnits="userSpaceOnUse" x1="2264.039" y1="-2511.516" x2="2338.064" y2="-2436.089" gradientTransform="matrix(1, 0, 0, -1, 0, 0)">
      <stop offset="0" stop-color="#000000" stop-opacity="0"/>
      <stop offset="1" stop-color="#000000" stop-opacity="0.978"/>
    </linearGradient>
    <clipPath id="Clip_1">
      <path d="M2256.409,2509.324 L2336.714,2483.688 C2336.656,2463.817 2319.806,2448.396 2299.483,2447.902 L2270.447,2447.902 L2270.445,2447.904 L2270.403,2447.902 L2270.399,2447.902 C2262.612,2448.019 2256.966,2453.773 2256.424,2461.054 L2256.409,2461.068 L2256.409,2509.324 z"/>
    </clipPath>
  </defs>
  <g id="Layer_1" opacity="0.446">
    <g id="scaleway" display="none">
      <path d="M2328.771,2460.364 L2310.656,2460.364 L2310.656,2458.618 C2310.656,2454.033 2306.723,2450.104 2302.139,2450.104 L2244.204,2450.104 C2239.637,2450.104 2235.698,2454.033 2235.698,2458.618 L2235.698,2478.051 C2235.698,2482.638 2239.637,2486.568 2244.204,2486.568 L2302.139,2486.568 C2316.981,2486.568 2328.771,2498.364 2328.771,2512.992 L2328.771,2532.425 C2328.771,2547.056 2316.981,2558.848 2302.139,2558.848 L2244.204,2558.848 C2229.582,2558.848 2217.786,2547.056 2217.786,2532.422 L2217.786,2530.684 L2235.698,2530.684 L2235.698,2532.422 C2235.698,2537.006 2239.637,2540.942 2244.204,2540.942 L2302.139,2540.942 C2306.723,2540.942 2310.656,2537.006 2310.656,2532.425 L2310.656,2512.992 C2310.656,2508.405 2306.723,2504.477 2302.139,2504.477 L2244.204,2504.477 C2229.582,2504.477 2217.786,2492.682 2217.786,2478.051 L2217.786,2458.618 C2217.786,2443.987 2229.582,2432.203 2244.204,2432.203 L2302.139,2432.203 C2316.981,2432.203 2328.771,2443.987 2328.771,2458.618 L2328.771,2460.364" fill="#6B5D70"/>
      <path d="M2457.443,2540.942 L2457.443,2558.848 L2372.537,2558.848 C2357.909,2558.848 2346.111,2547.056 2346.111,2532.425 L2346.111,2458.618 C2346.111,2443.987 2357.909,2432.203 2372.537,2432.203 L2457.017,2432.203 L2457.017,2450.104 L2372.537,2450.104 C2367.95,2450.104 2364.02,2454.033 2364.02,2458.618 L2364.02,2532.425 C2364.02,2537.006 2367.95,2540.942 2372.537,2540.942 L2457.443,2540.942" fill="#6B5D70"/>
      <path d="M2936.685,2432.572 L2936.685,2531.959 C2936.685,2536.549 2932.75,2540.474 2928.168,2540.474 L2893.32,2540.474 C2888.893,2540.474 2885.115,2536.803 2884.853,2532.422 C2884.856,2532.267 2884.878,2532.117 2884.878,2531.959 L2884.878,2432.572 L2866.972,2432.572 L2866.893,2531.959 C2866.893,2532.103 2866.924,2532.247 2866.924,2532.402 C2866.676,2536.786 2862.893,2540.474 2858.452,2540.474 L2823.274,2540.474 C2818.689,2540.474 2814.759,2536.549 2814.759,2531.959 L2814.759,2432.397 L2796.844,2432.397 L2796.844,2531.959 C2796.844,2546.59 2808.634,2558.38 2823.274,2558.38 L2858.452,2558.38 C2865.15,2558.38 2871.238,2555.883 2875.887,2551.804 C2880.54,2555.883 2886.619,2558.38 2893.32,2558.38 L2928.168,2558.38 C2942.802,2558.38 2954.589,2546.59 2954.589,2531.959 L2954.589,2432.572 L2936.685,2432.572" fill="#6B5D70"/>
      <path d="M2621.162,2390.713 L2621.134,2532.425 C2621.134,2537.009 2625.078,2540.945 2629.651,2540.945 L2651.053,2540.945 L2651.053,2558.848 L2629.651,2558.848 C2615.021,2558.848 2603.233,2547.056 2603.233,2532.425 L2603.264,2390.713 L2621.162,2390.713" fill="#6B5D70"/>
      <path d="M2761.392,2486.571 L2761.392,2458.618 C2761.392,2454.033 2757.668,2450.104 2752.872,2450.104 L2694.797,2450.104 C2690.215,2450.104 2686.285,2454.033 2686.285,2458.618 L2686.285,2486.571 L2761.392,2486.571 z M2779.508,2458.618 L2779.508,2504.477 L2686.285,2504.477 L2686.285,2532.425 C2686.285,2537.009 2690.215,2540.945 2694.797,2540.945 L2779.508,2540.945 L2779.508,2558.848 L2694.797,2558.848 C2680.163,2558.848 2668.387,2547.056 2668.387,2532.425 L2668.387,2458.618 C2668.387,2443.99 2680.163,2432.206 2694.797,2432.206 L2752.872,2432.206 C2767.709,2432.206 2779.508,2443.99 2779.508,2458.618" fill="#6B5D70"/>
      <path d="M2492.897,2504.692 L2492.897,2532.645 C2492.897,2537.229 2496.604,2541.162 2501.412,2541.162 L2559.484,2541.162 C2564.063,2541.162 2568.001,2537.229 2568.001,2532.645 L2568.001,2504.692 L2492.897,2504.692 z M2474.782,2532.645 L2474.782,2486.785 L2568.001,2486.788 L2568.001,2458.841 C2568.001,2454.248 2564.063,2450.321 2559.484,2450.321 L2474.782,2450.321 L2474.782,2432.423 L2559.484,2432.423 C2574.118,2432.423 2585.899,2444.21 2585.899,2458.841 L2585.899,2532.645 C2585.899,2547.276 2574.118,2559.066 2559.484,2559.066 L2501.412,2559.066 C2486.569,2559.066 2474.782,2547.276 2474.782,2532.645" fill="#6B5D70"/>
      <path d="M2990.043,2504.692 L2990.043,2532.645 C2990.043,2537.229 2993.748,2541.162 2998.555,2541.162 L3056.628,2541.162 C3061.212,2541.162 3065.148,2537.229 3065.148,2532.645 L3065.148,2504.692 L2990.043,2504.692 z M2971.928,2532.645 L2971.928,2486.785 L3065.148,2486.788 L3065.148,2458.841 C3065.148,2454.248 3061.212,2450.321 3056.628,2450.321 L2971.928,2450.321 L2971.928,2432.423 L3056.628,2432.423 C3071.264,2432.423 3083.046,2444.21 3083.046,2458.841 L3083.046,2532.645 C3083.046,2547.276 3071.264,2559.066 3056.628,2559.066 L2998.555,2559.066 C2983.715,2559.066 2971.928,2547.276 2971.928,2532.645" fill="#6B5D70"/>
      <path d="M3185.073,2609.287 L3125.009,2609.287 L3125.009,2591.166 L3185.073,2591.166 C3189.667,2591.166 3193.588,2587.239 3193.588,2582.648 L3193.588,2559.068 L3126.809,2559.068 C3112.172,2559.068 3100.382,2547.276 3100.382,2532.645 L3100.382,2432.854 L3118.283,2432.854 L3118.283,2532.645 C3118.283,2537.229 3122.208,2541.159 3126.809,2541.159 L3185.073,2541.159 C3189.667,2541.159 3193.588,2537.229 3193.588,2532.645 L3193.588,2432.854 L3211.5,2432.86 L3211.5,2582.648 C3211.5,2597.491 3199.927,2609.287 3185.073,2609.287" fill="#6B5D70"/>
    </g>
    <g>
      <g id="scaleway_orig" opacity="0.598">
        <path d="M2401.608,2494.403 L2394.59,2494.403 L2394.59,2493.727 C2394.59,2491.95 2393.066,2490.428 2391.29,2490.428 L2368.845,2490.428 C2367.076,2490.428 2365.55,2491.95 2365.55,2493.727 L2365.55,2501.255 C2365.55,2503.032 2367.076,2504.555 2368.845,2504.555 L2391.29,2504.555 C2397.04,2504.555 2401.608,2509.125 2401.608,2514.792 L2401.608,2522.32 C2401.608,2527.989 2397.04,2532.557 2391.29,2532.557 L2368.845,2532.557 C2363.18,2532.557 2358.61,2527.989 2358.61,2522.319 L2358.61,2521.646 L2365.55,2521.646 L2365.55,2522.319 C2365.55,2524.095 2367.076,2525.62 2368.845,2525.62 L2391.29,2525.62 C2393.066,2525.62 2394.59,2524.095 2394.59,2522.32 L2394.59,2514.792 C2394.59,2513.015 2393.066,2511.493 2391.29,2511.493 L2368.845,2511.493 C2363.18,2511.493 2358.61,2506.923 2358.61,2501.255 L2358.61,2493.727 C2358.61,2488.058 2363.18,2483.493 2368.845,2483.493 L2391.29,2483.493 C2397.04,2483.493 2401.608,2488.058 2401.608,2493.727 L2401.608,2494.403" fill="#50285F"/>
        <path d="M2451.457,2525.62 L2451.457,2532.557 L2418.563,2532.557 C2412.896,2532.557 2408.325,2527.989 2408.325,2522.32 L2408.325,2493.727 C2408.325,2488.058 2412.896,2483.493 2418.563,2483.493 L2451.292,2483.493 L2451.292,2490.428 L2418.563,2490.428 C2416.786,2490.428 2415.264,2491.95 2415.264,2493.727 L2415.264,2522.32 C2415.264,2524.095 2416.786,2525.62 2418.563,2525.62 L2451.457,2525.62" fill="#50285F"/>
        <path d="M2637.123,2483.636 L2637.123,2522.14 C2637.123,2523.918 2635.598,2525.439 2633.823,2525.439 L2620.323,2525.439 C2618.608,2525.439 2617.144,2524.017 2617.043,2522.319 C2617.044,2522.259 2617.052,2522.201 2617.052,2522.14 L2617.052,2483.636 L2610.115,2483.636 L2610.085,2522.14 C2610.085,2522.196 2610.097,2522.251 2610.097,2522.312 C2610,2524.01 2608.535,2525.439 2606.814,2525.439 L2593.186,2525.439 C2591.41,2525.439 2589.887,2523.918 2589.887,2522.14 L2589.887,2483.568 L2582.947,2483.568 L2582.947,2522.14 C2582.947,2527.808 2587.514,2532.376 2593.186,2532.376 L2606.814,2532.376 C2609.409,2532.376 2611.768,2531.409 2613.569,2529.828 C2615.371,2531.409 2617.727,2532.376 2620.323,2532.376 L2633.823,2532.376 C2639.493,2532.376 2644.059,2527.808 2644.059,2522.14 L2644.059,2483.636 L2637.123,2483.636" fill="#50285F"/>
        <path d="M2514.885,2467.419 L2514.874,2522.32 C2514.874,2524.096 2516.402,2525.621 2518.174,2525.621 L2526.465,2525.621 L2526.465,2532.557 L2518.174,2532.557 C2512.505,2532.557 2507.939,2527.989 2507.939,2522.32 L2507.951,2467.419 L2514.885,2467.419" fill="#50285F"/>
        <path d="M2569.212,2504.556 L2569.212,2493.727 C2569.212,2491.95 2567.769,2490.428 2565.911,2490.428 L2543.412,2490.428 C2541.637,2490.428 2540.114,2491.95 2540.114,2493.727 L2540.114,2504.556 L2569.212,2504.556 z M2576.23,2493.727 L2576.23,2511.493 L2540.114,2511.493 L2540.114,2522.32 C2540.114,2524.096 2541.637,2525.621 2543.412,2525.621 L2576.23,2525.621 L2576.23,2532.557 L2543.412,2532.557 C2537.742,2532.557 2533.18,2527.989 2533.18,2522.32 L2533.18,2493.727 C2533.18,2488.059 2537.742,2483.494 2543.412,2483.494 L2565.911,2483.494 C2571.659,2483.494 2576.23,2488.059 2576.23,2493.727" fill="#50285F"/>
        <path d="M2465.193,2511.576 L2465.193,2522.406 C2465.193,2524.182 2466.629,2525.705 2468.491,2525.705 L2490.99,2525.705 C2492.763,2525.705 2494.289,2524.182 2494.289,2522.406 L2494.289,2511.576 L2465.193,2511.576 z M2458.175,2522.406 L2458.175,2504.639 L2494.289,2504.64 L2494.289,2493.813 C2494.289,2492.033 2492.763,2490.512 2490.99,2490.512 L2458.175,2490.512 L2458.175,2483.578 L2490.99,2483.578 C2496.659,2483.578 2501.223,2488.145 2501.223,2493.813 L2501.223,2522.406 C2501.223,2528.074 2496.659,2532.642 2490.99,2532.642 L2468.491,2532.642 C2462.741,2532.642 2458.175,2528.074 2458.175,2522.406" fill="#50285F"/>
        <path d="M2657.795,2511.576 L2657.795,2522.406 C2657.795,2524.182 2659.23,2525.705 2661.093,2525.705 L2683.591,2525.705 C2685.367,2525.705 2686.892,2524.182 2686.892,2522.406 L2686.892,2511.576 L2657.795,2511.576 z M2650.777,2522.406 L2650.777,2504.639 L2686.892,2504.64 L2686.892,2493.813 C2686.892,2492.033 2685.367,2490.512 2683.591,2490.512 L2650.777,2490.512 L2650.777,2483.578 L2683.591,2483.578 C2689.261,2483.578 2693.826,2488.145 2693.826,2493.813 L2693.826,2522.406 C2693.826,2528.074 2689.261,2532.642 2683.591,2532.642 L2661.093,2532.642 C2655.344,2532.642 2650.777,2528.074 2650.777,2522.406" fill="#50285F"/>
        <path d="M2733.353,2552.098 L2710.083,2552.098 L2710.083,2545.078 L2733.353,2545.078 C2735.132,2545.078 2736.651,2543.556 2736.651,2541.778 L2736.651,2532.643 L2710.78,2532.643 C2705.11,2532.643 2700.542,2528.074 2700.542,2522.406 L2700.542,2483.745 L2707.477,2483.745 L2707.477,2522.406 C2707.477,2524.182 2708.997,2525.704 2710.78,2525.704 L2733.353,2525.704 C2735.132,2525.704 2736.651,2524.182 2736.651,2522.406 L2736.651,2483.745 L2743.591,2483.748 L2743.591,2541.778 C2743.591,2547.528 2739.107,2552.098 2733.353,2552.098" fill="#50285F"/>
      </g>
      <g id="logo">
        <path d="M2321.609,2515.318 C2321.606,2515.348 2321.604,2515.378 2321.604,2515.408 L2321.604,2515.422 L2321.604,2532.669 C2321.515,2533.682 2320.637,2534.478 2319.564,2534.478 C2319.547,2534.478 2319.538,2534.483 2319.527,2534.484 L2301.872,2534.484 L2301.861,2534.484 C2301.838,2534.484 2301.818,2534.486 2301.795,2534.487 L2290.769,2534.487 C2289.303,2534.487 2288.117,2533.34 2288.117,2531.924 C2288.117,2530.51 2289.303,2529.362 2290.769,2529.362 C2290.774,2529.362 2290.779,2529.363 2290.785,2529.363 L2313.616,2529.363 C2313.634,2529.36 2313.646,2529.355 2313.665,2529.355 C2315.051,2529.355 2316.189,2528.326 2316.306,2527.015 L2316.306,2504.707 C2316.306,2504.702 2316.305,2504.696 2316.305,2504.69 C2316.305,2503.274 2317.491,2502.127 2318.957,2502.127 C2320.42,2502.127 2321.609,2503.274 2321.609,2504.69 z M2276.044,2520.237 C2276.044,2518.823 2277.231,2517.676 2278.697,2517.676 C2278.702,2517.676 2278.709,2517.677 2278.712,2517.677 L2301.545,2517.677 C2301.562,2517.674 2301.575,2517.669 2301.591,2517.669 C2302.981,2517.669 2304.118,2516.64 2304.232,2515.328 L2304.232,2493.02 L2304.232,2493.004 C2304.232,2491.589 2305.421,2490.442 2306.886,2490.442 C2308.349,2490.442 2309.536,2491.589 2309.536,2493.004 L2309.536,2503.631 C2309.535,2503.662 2309.533,2503.692 2309.533,2503.722 C2309.533,2503.727 2309.535,2503.731 2309.535,2503.736 L2309.535,2520.983 C2309.444,2521.996 2308.564,2522.792 2307.492,2522.792 C2307.477,2522.792 2307.467,2522.796 2307.454,2522.798 L2289.8,2522.798 C2289.799,2522.798 2289.791,2522.796 2289.789,2522.796 C2289.767,2522.796 2289.745,2522.8 2289.725,2522.801 L2278.697,2522.801 C2277.231,2522.801 2276.044,2521.654 2276.044,2520.237 M2274.024,2490.997 C2272.56,2490.997 2271.372,2489.85 2271.372,2488.435 L2271.372,2477.813 C2271.374,2477.78 2271.377,2477.746 2271.377,2477.711 L2271.377,2477.699 L2271.377,2460.452 C2271.466,2459.437 2272.344,2458.641 2273.418,2458.641 C2273.427,2458.641 2273.43,2458.64 2273.436,2458.639 L2302.214,2458.639 C2303.68,2458.639 2304.866,2459.786 2304.866,2461.201 C2304.866,2462.616 2303.68,2463.763 2302.214,2463.763 L2300.531,2463.763 L2277.698,2463.763 C2279.346,2463.763 2279.334,2463.77 2279.316,2463.77 C2277.929,2463.77 2276.791,2464.8 2276.675,2466.111 L2276.675,2488.417 L2276.675,2488.435 C2276.675,2489.85 2275.487,2490.997 2274.024,2490.997 M2316.902,2472.827 C2316.902,2474.243 2315.713,2475.389 2314.249,2475.389 L2314.23,2475.389 L2291.398,2475.389 C2291.38,2475.391 2291.37,2475.396 2291.35,2475.396 C2289.963,2475.396 2288.825,2476.426 2288.709,2477.738 L2288.709,2500.044 L2288.709,2500.062 C2288.709,2501.477 2287.523,2502.625 2286.06,2502.625 C2284.594,2502.625 2283.407,2501.477 2283.407,2500.062 L2283.407,2489.44 C2283.408,2489.406 2283.411,2489.372 2283.411,2489.338 C2283.411,2489.333 2283.41,2489.33 2283.41,2489.325 L2283.41,2472.078 C2283.501,2471.064 2284.379,2470.267 2285.452,2470.267 C2285.459,2470.267 2285.466,2470.267 2285.469,2470.264 L2314.249,2470.264 C2315.713,2470.264 2316.902,2471.413 2316.902,2472.827 M2299.422,2448.171 L2270.667,2448.171 L2270.665,2448.173 C2270.649,2448.173 2270.635,2448.171 2270.621,2448.171 C2263.07,2448.171 2256.942,2454.008 2256.778,2461.265 L2256.763,2461.28 L2256.763,2509.325 C2256.763,2529.003 2273.275,2544.954 2293.642,2544.954 L2322.952,2544.954 L2322.978,2544.928 C2330.36,2544.655 2336.263,2538.82 2336.299,2531.631 L2336.302,2531.627 L2336.302,2483.8 C2336.302,2464.123 2319.79,2448.171 2299.422,2448.171" fill="#51295F"/>
        <g clip-path="url(#Clip_1)">
          <path d="M2256.409,2509.324 L2336.714,2483.688 C2336.714,2463.923 2320.044,2447.902 2299.479,2447.902 L2270.448,2447.902 L2270.445,2447.904 C2270.43,2447.904 2270.416,2447.902 2270.4,2447.902 C2262.777,2447.902 2256.59,2453.764 2256.424,2461.054 L2256.409,2461.068 L2256.409,2509.324 z" fill="url(#Gradient_1)"/>
        </g>
      </g>
    </g>
  </g>
</svg>
